<svg version="1.2" xmlns="http://www.w3.org/2000/svg" viewBox="0 0 24 24" width="60" height="60">
	<title>explore-icon-svg</title>
	<style>
		.s0 { fill: none;stroke: #ffffff;stroke-linecap: round;stroke-linejoin: round;stroke-width: 2 } 
	</style>
	<path id="Layer" class="s0" d="m12 22c-5.5 0-10-4.5-10-10 0-5.5 4.5-10 10-10 5.5 0 10 4.5 10 10 0 5.5-4.5 10-10 10z"/>
	<path id="Layer" class="s0" d="m2 12h20"/>
	<path id="Layer" class="s0" d="m12 2q0.9 1 1.7 2.2 0.7 1.2 1.2 2.4 0.5 1.3 0.8 2.7 0.3 1.3 0.3 2.7 0 1.4-0.3 2.7-0.3 1.4-0.8 2.7-0.5 1.2-1.2 2.4-0.8 1.2-1.7 2.2-0.9-1-1.7-2.2-0.7-1.2-1.2-2.4-0.5-1.3-0.8-2.7-0.3-1.3-0.3-2.7 0-1.4 0.3-2.7 0.3-1.4 0.8-2.7 0.5-1.2 1.2-2.4 0.8-1.2 1.7-2.2z"/>
</svg>