<svg version="1.2" xmlns="http://www.w3.org/2000/svg" viewBox="0 0 488 488" width="488" height="488">
	<title>search-svgrepo-com-svg</title>
	<style>
		.s0 { fill: #ffffff } 
	</style>
	<g id="Layer">
		<g id="Layer">
			<path id="Layer" fill-rule="evenodd" class="s0" d="m481.8 481.6c-8.2 8.2-20.4 8.2-28.6 0l-140.5-140.5c-33 25.9-74.6 41.4-119.8 41.4-106.4 0-192.9-85.7-192.9-191.1 0-105.4 86.7-191.2 193.1-191.2 106.4 0 192.9 85.7 192.9 191.1 0 46.2-16.6 88.5-44.2 121.6l140 140.1c8.2 8.2 8.2 20.4 0 28.6zm-288.9-140.1c83.7 0 151.9-67.3 151.9-150.1 0-82.8-68.2-150.1-151.9-150.1-83.7 0-151.9 67.3-151.9 150.1 0 82.7 68.2 150.1 151.9 150.1z"/>
		</g>
	</g>
	<g id="Layer">
	</g>
	<g id="Layer">
	</g>
	<g id="Layer">
	</g>
	<g id="Layer">
	</g>
	<g id="Layer">
	</g>
	<g id="Layer">
	</g>
	<g id="Layer">
	</g>
	<g id="Layer">
	</g>
	<g id="Layer">
	</g>
	<g id="Layer">
	</g>
	<g id="Layer">
	</g>
	<g id="Layer">
	</g>
	<g id="Layer">
	</g>
	<g id="Layer">
	</g>
	<g id="Layer">
	</g>
</svg>