<svg version="1.2" xmlns="http://www.w3.org/2000/svg" viewBox="0 0 24 24" width="60" height="60">
	<title>category-icon-svg</title>
	<style>
		.s0 { fill: #ffffff } 
	</style>
	<path id="Layer" class="s0" d="m10.3 3.7c0.1 0.8 0.3 1.9 0.3 2.7 0 0.8-0.2 2-0.3 2.7-0.1 0.6-0.6 1.2-1.3 1.3-0.7 0.1-1.9 0.3-2.7 0.3-0.8 0-1.9-0.2-2.7-0.3-0.6-0.1-1.2-0.6-1.3-1.3-0.1-0.7-0.3-1.9-0.3-2.7 0-0.8 0.2-1.9 0.4-2.7 0.1-0.7 0.6-1.2 1.3-1.3 0.8-0.2 1.9-0.4 2.7-0.4 0.8 0 2 0.2 2.7 0.4 0.7 0.1 1.2 0.6 1.2 1.3z"/>
	<path id="Layer" class="s0" d="m10.4 15c0.1 0.7 0.3 1.9 0.3 2.7 0 0.8-0.2 1.9-0.3 2.7-0.1 0.6-0.6 1.2-1.3 1.3-0.7 0.1-1.9 0.3-2.7 0.3-0.8 0-1.9-0.2-2.7-0.3-0.6-0.1-1.2-0.6-1.3-1.3-0.1-0.8-0.3-1.9-0.3-2.7 0-0.8 0.2-2 0.3-2.7 0.1-0.6 0.6-1.2 1.3-1.3 0.8-0.1 1.9-0.3 2.7-0.3 0.8 0 2 0.2 2.7 0.3 0.7 0.1 1.2 0.6 1.3 1.3z"/>
	<path id="Layer" class="s0" d="m13.7 9.1c-0.1-0.7-0.3-1.9-0.3-2.7 0-0.8 0.2-1.9 0.3-2.7 0.1-0.6 0.6-1.2 1.3-1.3 0.7-0.1 1.9-0.3 2.7-0.3 0.8 0 1.9 0.2 2.7 0.3 0.6 0.1 1.2 0.6 1.3 1.3 0.1 0.8 0.3 1.9 0.3 2.7 0 0.8-0.2 2-0.3 2.7-0.1 0.6-0.6 1.2-1.3 1.3-0.8 0.1-1.9 0.3-2.7 0.3-0.8 0-2-0.2-2.7-0.3-0.7-0.1-1.2-0.6-1.3-1.3z"/>
	<path id="Layer" class="s0" d="m21.7 15c0.1 0.7 0.3 1.9 0.3 2.7 0 0.8-0.2 1.9-0.3 2.7-0.1 0.6-0.6 1.2-1.3 1.3-0.8 0.1-1.9 0.3-2.7 0.3-0.8 0-2-0.2-2.7-0.3-0.6-0.1-1.2-0.6-1.3-1.3-0.1-0.8-0.3-1.9-0.3-2.7 0-0.8 0.2-2 0.3-2.7 0.1-0.6 0.6-1.2 1.3-1.3 0.7-0.1 1.9-0.3 2.7-0.3 0.8 0 1.9 0.2 2.7 0.3 0.7 0.1 1.2 0.6 1.3 1.3z"/>
</svg>