<svg version="1.2" xmlns="http://www.w3.org/2000/svg" viewBox="0 0 48 48" width="48" height="48">
	<title>hamburger-menu-svg</title>
	<style>
		.s0 { fill: #ffffff } 
	</style>
	<path id="Layer" class="s0" d="m41 14h-34c-0.5 0-1-0.2-1.4-0.6-0.4-0.4-0.6-0.9-0.6-1.4 0-0.5 0.2-1 0.6-1.4 0.4-0.4 0.9-0.6 1.4-0.6h34c0.5 0 1 0.2 1.4 0.6 0.4 0.4 0.6 0.9 0.6 1.4 0 0.5-0.2 1-0.6 1.4-0.4 0.4-0.9 0.6-1.4 0.6z"/>
	<path id="Layer" class="s0" d="m41 26h-34c-0.5 0-1-0.2-1.4-0.6-0.4-0.4-0.6-0.9-0.6-1.4 0-0.5 0.2-1 0.6-1.4 0.4-0.4 0.9-0.6 1.4-0.6h34c0.5 0 1 0.2 1.4 0.6 0.4 0.4 0.6 0.9 0.6 1.4 0 0.5-0.2 1-0.6 1.4-0.4 0.4-0.9 0.6-1.4 0.6z"/>
	<path id="Layer" class="s0" d="m41 38h-34c-0.5 0-1-0.2-1.4-0.6-0.4-0.4-0.6-0.9-0.6-1.4 0-0.5 0.2-1 0.6-1.4 0.4-0.4 0.9-0.6 1.4-0.6h34c0.5 0 1 0.2 1.4 0.6 0.4 0.4 0.6 0.9 0.6 1.4 0 0.5-0.2 1-0.6 1.4-0.4 0.4-0.9 0.6-1.4 0.6z"/>
</svg>