<svg version="1.2" xmlns="http://www.w3.org/2000/svg" viewBox="0 0 331 331" width="60" height="60">
	<title>home-icon-svg</title>
	<style>
		.s0 { fill: #ffffff } 
	</style>
	<path id="Layer" class="s0" d="m329.8 142.1c-0.8 2.3-3.5 6.2-11.9 6.2h-19.8v154.9c0 11.1-9 20.1-20 20.1h-61.5c-11.1 0-20.5-9.2-20.5-20.1v-63.5c0-5.8-4.2-10.4-9.5-10.4h-42c-5.5 0-10.5 4.9-10.5 10.4v63.5c0 11.3-8.5 20.1-19.5 20.1h-62.5c-11 0-20-9-20-20.1v-154.9h-19.8c-8.4 0-11-3.9-11.9-6.2-0.8-2.3-1.2-6.9 5.4-12.3l144.5-117.8c4-3.3 9.2-5 14.8-5 5.5 0 10.8 1.8 14.8 5l55.2 45v-14.7c0-6.1 5-11 11-11h26c6.1 0 11 4.9 11 11v53.8l41.3 33.7c6.6 5.4 6.2 10 5.4 12.3z"/>
	<g id="Layer">
	</g>
	<g id="Layer">
	</g>
	<g id="Layer">
	</g>
	<g id="Layer">
	</g>
	<g id="Layer">
	</g>
	<g id="Layer">
	</g>
	<g id="Layer">
	</g>
	<g id="Layer">
	</g>
	<g id="Layer">
	</g>
	<g id="Layer">
	</g>
	<g id="Layer">
	</g>
	<g id="Layer">
	</g>
	<g id="Layer">
	</g>
	<g id="Layer">
	</g>
	<g id="Layer">
	</g>
</svg>